<svg width="22" height="22" viewBox="0 0 22 22" fill="none" xmlns="http://www.w3.org/2000/svg">
<path d="M18.8905 8.36865H3.11103C2.7917 8.36901 2.47657 8.44153 2.18921 8.58082C1.90185 8.7201 1.64968 8.92253 1.45157 9.17297C1.25427 9.42272 1.11641 9.71409 1.04842 10.025C0.980424 10.3359 0.984088 10.6583 1.05913 10.9676L2.75103 17.8951C2.99599 18.7877 3.52785 19.5748 4.26455 20.1351C5.00185 20.6962 5.90455 21 6.83321 21H15.1662C16.0949 21 16.9976 20.6962 17.7349 20.1351C18.4716 19.5748 19.0034 18.7877 19.2484 17.8951L20.9403 10.9686C21.0542 10.5017 21.0042 10.0098 20.7987 9.57523C20.5933 9.1407 20.2448 8.78993 19.8116 8.58162C19.5234 8.44324 19.2081 8.37051 18.8884 8.36865M6.7705 12.5784V16.7892M11.0008 12.5784V16.7892M15.2311 12.5784V16.7892M18.4041 8.36865C18.4037 7.40005 18.2119 6.44107 17.8397 5.54683C17.4676 4.65258 16.9223 3.8407 16.2354 3.15784C14.8446 1.7746 12.9624 0.998706 11.0008 1C9.03921 0.998706 7.15701 1.7746 5.76618 3.15784C5.07943 3.84079 4.53441 4.65271 4.16243 5.54695C3.79044 6.44119 3.59883 7.40013 3.5986 8.36865" stroke="white" stroke-linecap="round" stroke-linejoin="round"/>
</svg>
