<svg width="20" height="20" viewBox="0 0 20 20" fill="none" xmlns="http://www.w3.org/2000/svg">
<g clip-path="url(#clip0_30_247)">
<path fill-rule="evenodd" clip-rule="evenodd" d="M4.06884 2.01992C2.52558 2.82986 1.39535 4.75748 1.39535 7.05588C1.39535 9.40343 2.23256 11.2135 3.4307 12.765C4.41954 14.043 5.61581 15.1029 6.78233 16.1351C7.06016 16.3809 7.33457 16.626 7.60558 16.8703C8.09488 17.3137 8.53116 17.7016 8.95256 17.9848C9.37395 18.2679 9.71163 18.3961 10 18.3961C10.2884 18.3961 10.627 18.2679 11.0474 17.9848C11.4688 17.7016 11.9051 17.3137 12.3944 16.8703C12.6654 16.6252 12.9398 16.3805 13.2177 16.1362C14.3842 15.1019 15.5805 14.043 16.5693 12.765C17.7684 11.2135 18.6047 9.40343 18.6047 7.05588C18.6047 4.75855 17.4744 2.82986 15.9312 2.01992C14.4316 1.23241 12.4167 1.44078 10.5023 3.72635C10.4372 3.80391 10.3592 3.86561 10.2729 3.90774C10.1866 3.94988 10.0938 3.9716 10 3.9716C9.90622 3.9716 9.8134 3.94988 9.72709 3.90774C9.64078 3.86561 9.56276 3.80391 9.49767 3.72635C7.58326 1.44078 5.56837 1.23241 4.06884 2.01992ZM10 2.05838C7.8493 -0.153464 5.44093 -0.463337 3.48837 0.561379C1.42884 1.64593 0 4.15911 0 7.05695C0 9.90457 1.03256 12.078 2.38791 13.8303C3.47256 15.2333 4.8 16.4076 5.97302 17.4441C6.23969 17.6792 6.49581 17.9078 6.7414 18.1301C7.2186 18.5618 7.73023 19.0212 8.24837 19.3696C8.76651 19.7179 9.35814 20 10 20C10.6419 20 11.2335 19.7168 11.7516 19.3696C12.2707 19.0212 12.7814 18.5618 13.2586 18.1301C13.5042 17.9078 13.7603 17.6792 14.027 17.4441C15.1991 16.4076 16.5274 15.2322 17.6121 13.8303C18.9674 12.078 20 9.90457 20 7.05695C20 4.15911 18.5721 1.64593 16.5116 0.563517C14.5591 -0.462268 12.1507 -0.152396 10 2.05838Z" fill="white"/>
</g>
<defs>
<clipPath id="clip0_30_247">
<rect width="20" height="20" rx="2" fill="white"/>
</clipPath>
</defs>
</svg>
